<?xml version="1.0" encoding="utf-8"?>
<svg version="1.1" xmlns:xlink="http://www.w3.org/1999/xlink" width="73px" height="41px" xmlns="http://www.w3.org/2000/svg">
  <g transform="matrix(1 0 0 1 -20 -17 )">
    <path d="M 20 17  L 93 17  L 93 58  L 20 58  L 20 17  " fill-rule="nonzero" fill="#cccccc" stroke="none" />
    <path d="M 23 20  L 90 20  L 90 55  L 23 55  L 23 20  " fill-rule="nonzero" fill="#ffffff" stroke="none" />
    <path d="M 61.035 29.299999999999997  C 59.313 29.299999999999997  57.96 27.947  57.96 26.224999999999998  C 57.96 24.502999999999997  59.313 23.15  61.035 23.15  C 62.757 23.15  64.11 24.502999999999997  64.11 26.224999999999998  C 64.11 27.947  62.757 29.299999999999997  61.035 29.299999999999997  " fill-rule="nonzero" fill="#cccccc" stroke="none" />
    <path d="M 24 54  L 24 35.849999999999994  L 40.25 27.599999999999998  L 63 42.87945205479452  L 76 32.55  L 89 42.87945205479452  L 89 54  L 24 54  " fill-rule="nonzero" fill="#169bd5" stroke="none" />
  </g>
</svg>