<?xml version="1.0" encoding="utf-8"?>
<svg version="1.1" xmlns:xlink="http://www.w3.org/1999/xlink" width="18px" height="29px" xmlns="http://www.w3.org/2000/svg">
  <g transform="matrix(1 0 0 1 -730 -25 )">
    <path d="M 17.702044790652387 8.3681592039801  C 18.017526777020446 8.807865434731106  18.070107108081793 9.27505330490405  17.859785783836415 9.769722814498936  C 17.64946445959104 10.278133143804785  17.310613437195716 10.532338308457712  16.843232716650437 10.532338308457712  L 13.47809152872444 10.532338308457712  L 13.47809152872444 28.34044065387349  C 13.47809152872444 28.532812129827054  13.425511197663097 28.6908315565032  13.320350535540408 28.814498933901916  C 13.215189873417723 28.938166311300638  13.080817916260955 29  12.917234664070108 29  L 0.578383641674781 29  C 0.3330087633885102 29  0.16358325219084713 28.87633262260128  0.07010710808179163 28.62899786780384  C -0.02336903602726389 28.354181473584458  0 28.113717128642502  0.14021421616358326 27.907604832977967  L 2.9444985394352483 23.950248756218905  C 3.049659201557936 23.799099739398248  3.195715676728335 23.723525230987917  3.382667964946446 23.723525230987917  L 9 23.723525230987917  L 9 10.532338308457712  L 5.626095423563778 10.532338308457712  C 5.158714703018502 10.532338308457712  4.8198636806231745 10.278133143804785  4.6095423563777995 9.769722814498936  C 4.410905550146056 9.261312485193079  4.463485881207401 8.794124615020134  4.76728334956183 8.3681592039801  L 10.37585199610516 0.45344705046197653  C 10.586173320350536 0.15114901682065562  10.87244401168452 0  11.234664070107108 0  C 11.5968841285297 0  11.883154819863682 0.15114901682065562  12.093476144109056 0.45344705046197653  L 17.702044790652387 8.3681592039801  Z " fill-rule="nonzero" fill="#ffffff" stroke="none" transform="matrix(1 0 0 1 730 25 )" />
  </g>
</svg>