<?xml version="1.0" encoding="utf-8"?>
<svg version="1.1" xmlns:xlink="http://www.w3.org/1999/xlink" width="800px" height="170px" xmlns="http://www.w3.org/2000/svg">
  <g transform="matrix(1 0 0 1 0 -75 )">
    <path d="M 0 75  L 800 75  L 800 245  L 0 245  L 0 75  " fill-rule="nonzero" fill="#cccccc" stroke="none" />
    <path d="M 12 87  L 788 87  L 788 233  L 12 233  L 12 87  " fill-rule="nonzero" fill="#ffffff" stroke="none" />
    <path d="M 428.75 126  C 421.61 126  416 120.39  416 113.25  C 416 106.11  421.61 100.5  428.75 100.5  C 435.89 100.5  441.5 106.11  441.5 113.25  C 441.5 120.39  435.89 126  428.75 126  " fill-rule="nonzero" fill="#cccccc" stroke="none" />
    <path d="M 17 229  L 17 153.64999999999998  L 208.75 119.39999999999999  L 477.2 211.5325  L 630.6 139.95  L 784 211.5325  L 784 229  L 17 229  " fill-rule="nonzero" fill="#169bd5" stroke="none" />
  </g>
</svg>