<?xml version="1.0" encoding="utf-8"?>
<svg version="1.1" xmlns:xlink="http://www.w3.org/1999/xlink" width="283px" height="172px" xmlns="http://www.w3.org/2000/svg">
  <g transform="matrix(1 0 0 1 -57 -316 )">
    <path d="M 57 316  L 340 316  L 340 488  L 57 488  L 57 316  " fill-rule="nonzero" fill="#cccccc" stroke="none" />
    <path d="M 69 328  L 328 328  L 328 476  L 69 476  L 69 328  " fill-rule="nonzero" fill="#ffffff" stroke="none" />
    <path d="M 217.06 367.6  C 209.836 367.6  204.16 361.92400000000004  204.16 354.70000000000005  C 204.16 347.476  209.836 341.8  217.06 341.8  C 224.284 341.8  229.96 347.476  229.96 354.70000000000005  C 229.96 361.92400000000004  224.284 367.6  217.06 367.6  " fill-rule="nonzero" fill="#cccccc" stroke="none" />
    <path d="M 74 472  L 74 395.55  L 136.5 360.8  L 224 421.31166077738516  L 274 381.65  L 324 421.31166077738516  L 324 472  L 74 472  " fill-rule="nonzero" fill="#169bd5" stroke="none" />
  </g>
</svg>