<?xml version="1.0" encoding="utf-8"?>
<svg version="1.1" xmlns:xlink="http://www.w3.org/1999/xlink" width="744px" height="170px" xmlns="http://www.w3.org/2000/svg">
  <g transform="matrix(1 0 0 1 -29 -132 )">
    <path d="M 29 132  L 773 132  L 773 302  L 29 302  L 29 132  " fill-rule="nonzero" fill="#cccccc" stroke="none" />
    <path d="M 41 144  L 761 144  L 761 290  L 41 290  L 41 144  " fill-rule="nonzero" fill="#ffffff" stroke="none" />
    <path d="M 428.63 183  C 421.49 183  415.88 177.39  415.88 170.25  C 415.88 163.11  421.49 157.5  428.63 157.5  C 435.77 157.5  441.38 163.11  441.38 170.25  C 441.38 177.39  435.77 183  428.63 183  " fill-rule="nonzero" fill="#cccccc" stroke="none" />
    <path d="M 46 286  L 46 210.64999999999998  L 223.75 176.39999999999998  L 472.59999999999997 267.2177419354839  L 614.8000000000001 196.95  L 757 267.2177419354839  L 757 286  L 46 286  " fill-rule="nonzero" fill="#169bd5" stroke="none" />
  </g>
</svg>