<?xml version="1.0" encoding="utf-8"?>
<svg version="1.1" xmlns:xlink="http://www.w3.org/1999/xlink" width="300px" height="170px" xmlns="http://www.w3.org/2000/svg">
  <g transform="matrix(1 0 0 1 -39 -1104 )">
    <path d="M 39 1104  L 339 1104  L 339 1274  L 39 1274  L 39 1104  " fill-rule="nonzero" fill="#cccccc" stroke="none" />
    <path d="M 51 1116  L 327 1116  L 327 1262  L 51 1262  L 51 1116  " fill-rule="nonzero" fill="#ffffff" stroke="none" />
    <path d="M 207.75 1155  C 200.61 1155  195 1149.39  195 1142.25  C 195 1135.11  200.61 1129.5  207.75 1129.5  C 214.89 1129.5  220.5 1135.11  220.5 1142.25  C 220.5 1149.39  214.89 1155  207.75 1155  " fill-rule="nonzero" fill="#cccccc" stroke="none" />
    <path d="M 56 1258  L 56 1182.65  L 122.75 1148.4  L 216.2 1211.42  L 269.6 1168.95  L 323 1211.42  L 323 1258  L 56 1258  " fill-rule="nonzero" fill="#169bd5" stroke="none" />
  </g>
</svg>